<?xml version="1.0" encoding="UTF-8"?>
<svg id="Layer_2" data-name="Layer 2" xmlns="http://www.w3.org/2000/svg" viewBox="0 0 281.82 158.66">
  <defs>
    <style>
      .cls-1 {
        fill: #febf54;
        stroke: #231f20;
        stroke-linejoin: round;
      }
    </style>
  </defs>
  <g id="Layer_4" data-name="Layer 4">
    <path class="cls-1" d="M227.73,50.98c-2.13,0-4.22.14-6.29.38,1.29-3.85,2-7.98,2-12.27,0-21.31-17.28-38.59-38.59-38.59-16.03,0-29.78,9.78-35.61,23.7-8.74-7.87-20.3-12.67-32.99-12.67-24.46,0-44.75,17.82-48.63,41.18-4.33-1.13-8.86-1.73-13.54-1.73C24.49,50.98.5,74.97.5,104.57s23.99,53.59,53.59,53.59c18.19,0,34.26-9.07,43.94-22.93,9.69,13.86,25.75,22.93,43.94,22.93s33.09-8.42,42.87-21.43c9.78,13.01,25.34,21.43,42.87,21.43,29.6,0,53.59-23.99,53.59-53.59s-23.99-53.59-53.59-53.59Z"/>
  </g>
</svg>