<?xml version="1.0" encoding="UTF-8"?>
<svg id="Layer_2" data-name="Layer 2" xmlns="http://www.w3.org/2000/svg" viewBox="0 0 391.14 235.05">
  <defs>
    <style>
      .cls-1 {
        fill: #febf54;
        stroke: #231f20;
        stroke-linejoin: round;
      }
    </style>
  </defs>
  <g id="Layer_4" data-name="Layer 4">
    <path class="cls-1" d="M304.89,78.52c-11.02,0-21.55,1.91-31.23,5.36.13-1.77.22-3.56.22-5.36C273.89,35.43,235.5.5,188.14.5s-85.74,34.93-85.74,78.02c0,.47.03.94.04,1.41-5.25-.91-10.65-1.41-16.19-1.41C38.89,78.52.5,113.45.5,156.54s38.39,78.02,85.74,78.02c21.29,0,40.74-7.07,55.74-18.76,14.99,11.68,34.45,18.76,55.74,18.76s38.91-6.42,53.59-17.13c14.68,10.71,33.31,17.13,53.59,17.13,47.36,0,85.74-34.93,85.74-78.02s-38.39-78.02-85.74-78.02Z"/>
  </g>
</svg>