<?xml version="1.0" encoding="UTF-8"?>
<svg id="Layer_2" data-name="Layer 2" xmlns="http://www.w3.org/2000/svg" viewBox="0 0 246.05 144.81">
  <defs>
    <style>
      .cls-1 {
        fill: #febf54;
        stroke: #231f20;
        stroke-linejoin: round;
      }
    </style>
  </defs>
  <g id="Layer_4" data-name="Layer 4">
    <path class="cls-1" d="M208.89,43.58c-8.63-16.29-25.76-27.4-45.48-27.4-4.47,0-8.81.57-12.95,1.65C141.03,7.2,127.29.5,111.96.5c-22.07,0-40.89,13.9-48.2,33.43-3.8-.89-7.75-1.38-11.82-1.38C23.53,32.55.5,55.58.5,84s23.03,51.45,51.45,51.45c13.81,0,26.34-5.45,35.58-14.31,9.43,10.85,23.33,17.72,38.83,17.72,11.54,0,22.2-3.8,30.78-10.22,9.35,9.66,22.45,15.68,36.96,15.68,28.41,0,51.45-23.03,51.45-51.45,0-23.27-15.45-42.92-36.65-49.28Z"/>
  </g>
</svg>